# xmcd CD database file
#
# Track frame offsets:
#	150
#	14775
#	26448
#	39564
#	51698
#	74084
#	93324
#	104682
#	119633
#	132217
#	143347
#	156924
#	166807
#	177325
#	191852
#	200805
#	212532
#	228120
#	242857
#	261801
#	272103
#	291389
#	307360
#	322430
#	339912
#
# Disc length: 4723 seconds
#
# Revision: 0
# Processed by: cddbd v1.5.2PL0 Copyright (c) Steve Scherf et al.
# Submitted via: CDex 1.51
#
DISCID=96127119
DTITLE=Carmen McRae - A Collection Of Her Finest Decca Recordings 1955-1958 CD1
DYEAR=1955
DGENRE=Jazz
TTITLE0=Something to live for
TTITLE1=Blue moon
TTITLE2=A fine romance
TTITLE3=Just one of those things
TTITLE4=A nightingale sang in berkeley square
TTITLE5=Mad about the boy
TTITLE6=Nice work if you can get it
TTITLE7=I can't get started
TTITLE8=If you'd stay the way I dream about you
TTITLE9=Between the devil and the deep blue sea
TTITLE10=Laughing boy
TTITLE11=Exactly like you
TTITLE12=Give me the simple life
TTITLE13=Happy to make your acquaintance
TTITLE14=Yardbird suite
TTITLE15=Tea for two
TTITLE16=You're mine
TTITLE17=It's the little things that mean so much
TTITLE18=I'm through with love
TTITLE19=East of the sun
TTITLE20=All my life
TTITLE21=I can't escape from you
TTITLE22=Without a word of warning
TTITLE23=Baltimore oriole
TTITLE24=Star eyes
EXTD=YEAR: 1955
EXTT0=
EXTT1=
EXTT2=
EXTT3=
EXTT4=
EXTT5=
EXTT6=
EXTT7=
EXTT8=
EXTT9=
EXTT10=
EXTT11=
EXTT12=
EXTT13=
EXTT14=
EXTT15=
EXTT16=
EXTT17=
EXTT18=
EXTT19=
EXTT20=
EXTT21=
EXTT22=
EXTT23=
EXTT24=
PLAYORDER=
